<svg xmlns="http://www.w3.org/2000/svg" width="800" height="800" viewBox="0 0 800 800">
  <rect width="800" height="800" fill="#0B0E17"/>
  <g fill="#FFFFFF">
    <!-- Pequenas estrelas -->
    <circle cx="50" cy="50" r="0.8" opacity="0.6"/>
    <circle cx="120" cy="80" r="0.6" opacity="0.5"/>
    <circle cx="200" cy="30" r="0.7" opacity="0.7"/>
    <circle cx="280" cy="120" r="0.5" opacity="0.4"/>
    <circle cx="350" cy="60" r="0.9" opacity="0.8"/>
    <circle cx="400" cy="200" r="0.7" opacity="0.6"/>
    <circle cx="480" cy="90" r="0.6" opacity="0.5"/>
    <circle cx="550" cy="150" r="0.8" opacity="0.7"/>
    <circle cx="600" cy="70" r="0.5" opacity="0.4"/>
    <circle cx="700" cy="100" r="0.7" opacity="0.6"/>
    <circle cx="750" cy="40" r="0.6" opacity="0.5"/>
    <circle cx="100" cy="180" r="0.8" opacity="0.7"/>
    <circle cx="170" cy="220" r="0.5" opacity="0.4"/>
    <circle cx="250" cy="170" r="0.7" opacity="0.6"/>
    <circle cx="320" cy="250" r="0.6" opacity="0.5"/>
    <circle cx="380" cy="300" r="0.8" opacity="0.7"/>
    <circle cx="450" cy="270" r="0.5" opacity="0.4"/>
    <circle cx="520" cy="320" r="0.7" opacity="0.6"/>
    <circle cx="580" cy="220" r="0.6" opacity="0.5"/>
    <circle cx="650" cy="280" r="0.8" opacity="0.7"/>
    <circle cx="720" cy="350" r="0.5" opacity="0.4"/>
    <circle cx="50" cy="350" r="0.7" opacity="0.6"/>
    <circle cx="120" cy="400" r="0.6" opacity="0.5"/>
    <circle cx="200" cy="380" r="0.8" opacity="0.7"/>
    <circle cx="280" cy="450" r="0.5" opacity="0.4"/>
    <circle cx="350" cy="420" r="0.7" opacity="0.6"/>
    <circle cx="400" cy="500" r="0.6" opacity="0.5"/>
    <circle cx="480" cy="470" r="0.8" opacity="0.7"/>
    <circle cx="550" cy="520" r="0.5" opacity="0.4"/>
    <circle cx="600" cy="400" r="0.7" opacity="0.6"/>
    <circle cx="700" cy="480" r="0.6" opacity="0.5"/>
    <circle cx="750" cy="550" r="0.8" opacity="0.7"/>
    <circle cx="100" cy="550" r="0.5" opacity="0.4"/>
    <circle cx="170" cy="600" r="0.7" opacity="0.6"/>
    <circle cx="250" cy="580" r="0.6" opacity="0.5"/>
    <circle cx="320" cy="650" r="0.8" opacity="0.7"/>
    <circle cx="380" cy="620" r="0.5" opacity="0.4"/>
    <circle cx="450" cy="700" r="0.7" opacity="0.6"/>
    <circle cx="520" cy="670" r="0.6" opacity="0.5"/>
    <circle cx="580" cy="750" r="0.8" opacity="0.7"/>
    <circle cx="650" cy="720" r="0.5" opacity="0.4"/>
    <circle cx="720" cy="680" r="0.7" opacity="0.6"/>
    
    <!-- Estrelas médias -->
    <circle cx="150" cy="150" r="1.2" opacity="0.8"/>
    <circle cx="300" cy="80" r="1.0" opacity="0.7"/>
    <circle cx="450" cy="180" r="1.1" opacity="0.8"/>
    <circle cx="600" cy="120" r="1.0" opacity="0.7"/>
    <circle cx="200" cy="300" r="1.2" opacity="0.8"/>
    <circle cx="350" cy="350" r="1.0" opacity="0.7"/>
    <circle cx="500" cy="250" r="1.1" opacity="0.8"/>
    <circle cx="650" cy="380" r="1.0" opacity="0.7"/>
    <circle cx="150" cy="500" r="1.2" opacity="0.8"/>
    <circle cx="300" cy="450" r="1.0" opacity="0.7"/>
    <circle cx="450" cy="550" r="1.1" opacity="0.8"/>
    <circle cx="600" cy="600" r="1.0" opacity="0.7"/>
    <circle cx="250" cy="700" r="1.2" opacity="0.8"/>
    <circle cx="400" cy="650" r="1.0" opacity="0.7"/>
    <circle cx="550" cy="680" r="1.1" opacity="0.8"/>
    <circle cx="700" cy="750" r="1.0" opacity="0.7"/>
    
    <!-- Estrelas grandes com brilho -->
    <circle cx="100" cy="100" r="1.5" opacity="0.9">
      <animate attributeName="opacity" values="0.9;0.5;0.9" dur="3s" repeatCount="indefinite" />
    </circle>
    <circle cx="400" cy="150" r="1.8" opacity="0.9">
      <animate attributeName="opacity" values="0.9;0.6;0.9" dur="4s" repeatCount="indefinite" />
    </circle>
    <circle cx="700" cy="200" r="1.6" opacity="0.9">
      <animate attributeName="opacity" values="0.9;0.5;0.9" dur="5s" repeatCount="indefinite" />
    </circle>
    <circle cx="200" cy="400" r="1.7" opacity="0.9">
      <animate attributeName="opacity" values="0.9;0.6;0.9" dur="3.5s" repeatCount="indefinite" />
    </circle>
    <circle cx="500" cy="350" r="1.5" opacity="0.9">
      <animate attributeName="opacity" values="0.9;0.5;0.9" dur="4.5s" repeatCount="indefinite" />
    </circle>
    <circle cx="300" cy="600" r="1.8" opacity="0.9">
      <animate attributeName="opacity" values="0.9;0.6;0.9" dur="3s" repeatCount="indefinite" />
    </circle>
    <circle cx="600" cy="500" r="1.6" opacity="0.9">
      <animate attributeName="opacity" values="0.9;0.5;0.9" dur="5s" repeatCount="indefinite" />
    </circle>
    <circle cx="150" cy="700" r="1.7" opacity="0.9">
      <animate attributeName="opacity" values="0.9;0.6;0.9" dur="4s" repeatCount="indefinite" />
    </circle>
    <circle cx="650" cy="650" r="1.5" opacity="0.9">
      <animate attributeName="opacity" values="0.9;0.5;0.9" dur="3.5s" repeatCount="indefinite" />
    </circle>
  </g>
</svg>